# xmcd CD database file
#
# Track frame offsets:
#	150
#	19887
#	46936
#	68374
#	94538
#	126368
#	157944
#
# Disc length: 2247 seconds
#
# Revision: 0
# Processed by: cddbd v1.5.2PL0 Copyright (c) Steve Scherf et al.
# Submitted via: CDex 1.51
#
DISCID=4b08c507
DTITLE=John Coltrane - Naima
DYEAR=1959
DGENRE=Jazz
TTITLE0=Naima
TTITLE1=Spiral
TTITLE2=Giant Steps
TTITLE3=Cousin Mary
TTITLE4=Syeeda's Song Flute
TTITLE5=Mr PC
TTITLE6=CountDown
EXTD=YEAR: 1959
EXTT0=
EXTT1=
EXTT2=
EXTT3=
EXTT4=
EXTT5=
EXTT6=
PLAYORDER=
